<?xml version="1.0" standalone="no"?>
<!DOCTYPE svg PUBLIC "-//W3C//DTD SVG 20010904//EN"
 "http://www.w3.org/TR/2001/REC-SVG-20010904/DTD/svg10.dtd">
<svg version="1.0" xmlns="http://www.w3.org/2000/svg"
 width="600.000000pt" height="600.000000pt" viewBox="0 0 600.000000 600.000000"
 preserveAspectRatio="xMidYMid meet">

<g transform="translate(0.000000,600.000000) scale(0.100000,-0.100000)"
fill="#000000" stroke="none">
<path d="M1144 3776 c7 -109 7 -114 -13 -119 -24 -6 -25 -23 -15 -150 l7 -77
58 0 c70 0 64 -15 79 195 6 83 13 176 17 208 l6 57 -73 0 -73 0 7 -114z"/>
<path d="M893 3839 c-29 -11 -53 -24 -53 -29 0 -5 20 -53 46 -107 25 -54 41
-99 37 -100 -39 -14 -38 -21 12 -123 27 -55 54 -98 60 -96 5 3 27 10 49 17 21
7 40 18 42 23 2 6 -22 105 -54 221 -40 145 -62 211 -72 212 -8 1 -39 -7 -67
-18z"/>
<path d="M1427 3798 c-51 -182 -46 -169 -72 -162 -21 5 -25 1 -34 -33 -28
-107 -41 -162 -41 -171 0 -12 98 -47 107 -38 10 10 183 390 183 402 0 10 -98
54 -120 54 -5 0 -15 -24 -23 -52z"/>
<path d="M627 3687 l-47 -42 80 -86 c58 -64 76 -88 65 -93 -29 -11 -14 -35 65
-106 l80 -72 39 33 c22 19 40 38 40 42 2 13 -249 362 -262 364 -7 2 -33 -16
-60 -40z"/>
<path d="M1649 3620 c-34 -49 -66 -90 -69 -90 -3 0 -11 5 -17 11 -6 6 -16 8
-22 5 -12 -8 -121 -165 -121 -174 0 -10 77 -72 88 -72 13 0 314 319 310 329
-4 12 -88 81 -98 81 -4 0 -36 -40 -71 -90z"/>
<path d="M3572 3133 l3 -558 80 0 80 0 3 178 2 177 29 0 c26 0 46 -21 173
-180 l143 -180 103 0 c56 0 102 2 102 5 0 3 -81 107 -180 230 l-180 225 98
132 c54 73 117 159 140 191 l43 57 -95 0 -95 0 -113 -160 c-98 -139 -117 -159
-140 -160 l-28 0 0 300 0 300 -85 0 -85 0 2 -557z"/>
<path d="M4340 3206 c0 -504 2 -528 44 -574 41 -46 74 -56 209 -60 l127 -4 0
81 0 81 -93 0 c-59 0 -97 4 -105 12 -9 9 -12 82 -12 265 l0 253 105 0 105 0 0
75 0 75 -105 0 -105 0 0 140 0 140 -85 0 -85 0 0 -484z"/>
<path d="M432 3466 c-17 -30 -32 -58 -32 -63 0 -5 45 -31 100 -57 92 -45 99
-50 94 -72 -6 -22 1 -28 91 -69 54 -25 101 -42 105 -38 14 16 53 93 49 97 -9
8 -368 256 -371 256 -2 0 -18 -24 -36 -54z"/>
<path d="M1833 3425 c-90 -63 -93 -64 -107 -43 -14 20 -16 19 -105 -43 -49
-35 -90 -67 -91 -71 0 -4 11 -23 24 -43 14 -20 26 -40 28 -46 4 -12 418 179
418 193 0 9 -67 118 -72 118 -2 0 -45 -29 -95 -65z"/>
<path d="M2953 3420 c-66 -10 -167 -57 -217 -100 -182 -160 -189 -464 -16
-637 211 -209 566 -145 693 125 42 91 50 216 19 319 -62 202 -264 326 -479
293z m182 -181 c160 -75 195 -319 64 -447 -97 -95 -257 -94 -354 3 -51 51 -75
116 -75 204 0 108 60 206 150 245 53 23 161 20 215 -5z"/>
<path d="M5090 3417 c-214 -50 -357 -265 -323 -488 23 -149 105 -264 231 -326
73 -36 80 -38 177 -38 117 1 172 22 240 90 l40 40 20 -40 c27 -53 68 -75 154
-82 l71 -6 0 82 0 81 -33 0 c-18 0 -38 5 -45 12 -9 9 -12 98 -12 340 l0 328
-80 0 -80 0 0 -55 c0 -30 -2 -55 -5 -55 -3 0 -23 18 -46 40 -71 69 -201 101
-309 77z m218 -183 c89 -44 135 -124 135 -239 1 -149 -89 -258 -227 -272 -99
-10 -192 37 -242 123 -37 62 -46 181 -19 251 23 59 79 121 130 144 62 29 158
25 223 -7z"/>
<path d="M327 3227 c-3 -8 -8 -39 -12 -69 l-7 -55 44 -6 c23 -4 76 -9 115 -13
70 -6 72 -8 67 -30 -6 -25 -1 -26 152 -39 l72 -6 7 47 c3 26 9 52 11 59 3 8
-64 30 -214 68 -121 32 -221 57 -224 57 -3 0 -8 -6 -11 -13z"/>
<path d="M1940 3180 c-105 -28 -119 -27 -120 8 0 9 -7 11 -20 7 -11 -3 -58
-17 -106 -30 -47 -13 -88 -25 -90 -28 -2 -2 1 -29 7 -60 10 -50 14 -56 33 -52
11 2 111 12 221 21 110 9 203 20 208 24 8 7 -10 121 -21 131 -4 4 -54 -6 -112
-21z"/>
<path d="M1613 2933 c-6 -32 -10 -58 -9 -59 0 -1 100 -27 220 -58 164 -43 221
-54 227 -45 9 16 22 119 15 126 -3 3 -49 10 -103 15 -120 11 -123 12 -116 37
6 24 -5 27 -133 36 l-90 6 -11 -58z"/>
<path d="M528 2956 c-119 -11 -219 -24 -222 -27 -6 -5 8 -89 19 -126 3 -10
111 12 202 41 18 6 23 3 29 -19 5 -19 11 -24 25 -20 10 4 57 17 105 30 47 13
88 25 90 28 6 6 -18 117 -25 116 -3 -1 -104 -11 -223 -23z"/>
<path d="M1566 2794 c-14 -26 -26 -49 -26 -53 0 -5 351 -250 371 -259 7 -3 69
101 69 117 0 5 -45 30 -100 57 -77 37 -99 51 -95 63 4 9 7 19 8 24 2 6 -184
97 -198 97 -2 0 -15 -21 -29 -46z"/>
<path d="M585 2734 c-110 -53 -202 -97 -203 -99 -5 -5 49 -103 63 -115 7 -6
41 12 103 55 90 63 92 64 106 43 14 -20 16 -19 103 43 48 34 90 64 93 66 2 2
-1 12 -8 21 -7 9 -20 32 -29 50 -9 17 -19 32 -22 31 -3 0 -96 -43 -206 -95z"/>
<path d="M1466 2675 c-21 -19 -36 -38 -35 -42 11 -27 256 -362 264 -363 6 0
32 20 60 44 l50 44 -84 86 c-66 67 -81 87 -68 92 10 3 17 11 17 18 0 14 -142
156 -155 156 -6 -1 -27 -16 -49 -35z"/>
<path d="M713 2541 c-84 -88 -153 -163 -153 -168 1 -8 82 -75 99 -81 5 -2 35
34 67 80 74 107 68 102 92 87 12 -7 23 -11 25 -9 27 35 117 172 117 178 0 10
-75 72 -87 72 -4 -1 -77 -72 -160 -159z"/>
<path d="M1343 2601 c-23 -9 -44 -19 -48 -23 -7 -7 103 -418 116 -432 9 -10
129 32 129 44 0 5 -20 53 -45 107 -42 94 -43 98 -25 107 11 5 20 12 20 16 0
15 -92 200 -98 199 -4 -1 -26 -9 -49 -18z"/>
<path d="M901 2412 c-50 -109 -91 -203 -91 -209 0 -9 103 -53 123 -53 4 0 14
26 23 58 9 31 23 81 31 110 13 47 17 51 38 46 21 -5 25 -1 35 38 6 23 18 66
26 95 21 75 19 79 -33 97 -26 9 -50 16 -54 16 -3 0 -48 -89 -98 -198z"/>
<path d="M1136 2538 c-3 -18 -10 -98 -16 -178 -6 -80 -13 -169 -16 -198 l-6
-53 73 3 c42 2 73 7 73 13 -1 6 -5 56 -9 112 -6 101 -6 101 17 105 13 2 23 8
23 13 0 6 -4 56 -9 113 l-8 102 -58 0 c-59 0 -59 0 -64 -32z"/>
</g>
</svg>
